<svg width="98" height="88" viewBox="0 0 98 88" fill="none" xmlns="http://www.w3.org/2000/svg">
<path d="M33.5 2.28027H1.5V85.2803H95V12.7803H42L33.5 2.28027Z" fill="#2B5554" stroke="#2B5554"/>
<path d="M43.0165 11.7464L35.5273 1.15705L34.8916 0.255859H0V87.2559H97.3039V11.7464H43.0165ZM94.0605 15.0294V23.237H51.143L45.3388 15.0294H94.0605ZM3.24346 83.9728V3.53888H33.2212L41.3299 15.0294H41.3493L48.9552 25.783C49.2715 26.2295 49.7677 26.4675 50.2737 26.4691V26.52H94.0605V83.9728H3.24346Z" fill="white"/>
<path d="M62.25 48.625H60V45.375C60 39.1028 55.2898 34 49.5 34C43.7102 34 39 39.1028 39 45.375V48.625H36.75C36.3355 48.625 36 48.9884 36 49.4375V69.7501C36 71.5425 37.3454 73 39 73H60C61.6546 73 63 71.5425 63 69.75V49.4375C63 48.9884 62.6645 48.625 62.25 48.625ZM51.7456 65.5978C51.7691 65.8271 51.701 66.0572 51.5589 66.2295C51.4168 66.4016 51.2132 66.5 51 66.5H48C47.7869 66.5 47.5833 66.4016 47.4412 66.2295C47.2991 66.0573 47.2309 65.8272 47.2544 65.5978L47.7276 60.9887C46.9593 60.3833 46.5 59.4256 46.5 58.375C46.5 56.5826 47.8455 55.125 49.5001 55.125C51.1547 55.125 52.5001 56.5825 52.5001 58.375C52.5001 59.4256 52.0409 60.3833 51.2726 60.9887L51.7456 65.5978ZM55.5 48.625H43.5V45.375C43.5 41.7909 46.1917 38.875 49.5 38.875C52.8083 38.875 55.5 41.7909 55.5 45.375V48.625V48.625Z" fill="white"/>
</svg>
